<svg width="24" height="24" viewBox="0 0 24 24" fill="none" xmlns="http://www.w3.org/2000/svg">
<path d="M13 21H21M15 5L19 9M21.174 6.812C21.4358 6.55028 21.6435 6.23955 21.7852 5.89757C21.9269 5.55558 21.9998 5.18903 21.9999 4.81885C21.9999 4.44867 21.9271 4.08211 21.7854 3.74009C21.6438 3.39807 21.4362 3.08729 21.1745 2.8255C20.9128 2.56371 20.602 2.35603 20.2601 2.21433C19.9181 2.07262 19.5515 1.99966 19.1813 1.99962C18.8112 1.99957 18.4446 2.07244 18.1026 2.21406C17.7606 2.35568 17.4498 2.56328 17.188 2.825L3.842 16.174C3.60981 16.4055 3.43811 16.6905 3.342 17.004L2.021 21.356C1.99515 21.4425 1.9932 21.5343 2.01535 21.6219C2.03749 21.7094 2.08292 21.7892 2.14679 21.853C2.21067 21.9168 2.29062 21.9621 2.37815 21.9841C2.46569 22.0061 2.55755 22.004 2.644 21.978L6.997 20.658C7.31017 20.5628 7.59517 20.3921 7.827 20.161L21.174 6.812Z" stroke="black" stroke-linecap="round" stroke-linejoin="round"/>
</svg>
