<svg width="24" height="24" viewBox="0 0 24 24" fill="none" xmlns="http://www.w3.org/2000/svg">
<path d="M19.485 20.154L13.223 13.892C12.723 14.318 12.148 14.6477 11.498 14.881C10.848 15.1143 10.1947 15.231 9.53798 15.231C7.93932 15.231 6.58465 14.6757 5.47398 13.565C4.36332 12.4537 3.80798 11.0987 3.80798 9.5C3.80798 7.90133 4.36332 6.54667 5.47398 5.436C6.58465 4.32533 7.93932 3.76967 9.53798 3.769C11.1367 3.76833 12.4917 4.324 13.603 5.436C14.7143 6.548 15.2697 7.90267 15.269 9.5C15.269 10.1947 15.146 10.867 14.9 11.517C14.654 12.167 14.3306 12.723 13.93 13.185L20.192 19.446L19.485 20.154ZM9.53898 14.23C10.8656 14.23 11.9856 13.7733 12.899 12.86C13.8123 11.9467 14.269 10.8263 14.269 9.499C14.269 8.17167 13.8123 7.05167 12.899 6.139C11.9856 5.22633 10.8656 4.76967 9.53898 4.769C8.21232 4.76833 7.09198 5.225 6.17798 6.139C5.26398 7.053 4.80732 8.173 4.80798 9.499C4.80865 10.825 5.26532 11.945 6.17798 12.859C7.09065 13.773 8.21065 14.2297 9.53798 14.229" fill="black"/>
</svg>
